<svg width="725" height="165" viewBox="0 0 725 165" fill="none" xmlns="http://www.w3.org/2000/svg">
<path d="M99.9956 145.335C100.216 155.577 92.0946 164 82 164V164C72.0589 164 64 155.822 64 145.733L64 127.063C64 117.087 71.9691 109 81.7995 109V109C91.4787 109 99.3838 116.849 99.5947 126.669L99.9956 145.335Z" fill="#3B82F6"/>
<path d="M49.6156 157.516C48.3278 157.858 46.9987 158.046 45.6669 157.99C36.678 157.614 30.5888 154.659 22.7436 149.434C14.328 143.828 7.76877 135.86 3.89547 126.539C0.0221693 117.217 -0.991261 106.959 0.983332 97.063C2.95792 87.167 7.83185 78.0768 14.9888 70.9422C22.1457 63.8075 31.2642 58.9487 41.1911 56.9803C51.1181 55.0118 61.4076 56.0221 70.7586 59.8834C80.1095 63.7446 88.1019 70.2834 93.7251 78.6729C95.9907 82.0531 97.8306 85.6724 99.2202 89.4495C102.642 98.7493 94.2824 107.016 84.3311 107.016L75.243 107.016C70.3109 107.016 66.4983 102.715 63.7614 98.6318V98.6318C62.0981 96.1501 59.7339 94.2159 56.9678 93.0737C54.2017 91.9315 51.158 91.6327 48.2216 92.215C45.2851 92.7972 42.5878 94.2345 40.4708 96.345C38.3537 98.4554 36.912 101.144 36.3279 104.072C35.7438 106.999 36.0436 110.033 37.1893 112.791C38.3351 115.548 40.2753 117.905 42.7647 119.563C44.3085 120.592 44.9731 120.817 45.9145 121.26C47.4909 122.003 49.1218 122.661 50.8541 122.863V122.863C56.5413 123.528 60.8692 128.258 61.0024 133.955L61.0639 136.587L60.958 143.06C60.8468 149.859 56.2168 155.76 49.6156 157.516V157.516Z" fill="#3B82F6"/>
<path d="M527.998 145.633C528.151 155.732 519.824 164 509.5 164V164C499.283 164 491 155.897 491 145.901L491 101.773C491 91.9573 499.133 84 509.166 84V84C519.094 84 527.184 91.7979 527.331 101.51L527.998 145.633Z" fill="#3B82F6"/>
<path d="M476.746 157.516C475.456 157.858 474.125 158.046 472.791 157.99C463.777 157.614 457.671 154.66 449.804 149.434C441.366 143.828 434.789 135.86 430.906 126.539C427.022 117.217 426.006 106.959 427.986 97.063C429.966 87.1669 434.853 78.0768 442.029 70.9422C449.205 63.8075 458.347 58.9487 468.301 56.9803C478.254 55.0118 488.571 56.0221 497.947 59.8834C507.323 63.7446 515.336 70.2834 520.975 78.6729C523.319 82.1614 525.209 87.9596 526.617 94.269C529.283 106.215 517.57 114.936 505.878 111.09L501.982 109.809C496.912 108.142 493.897 103.044 490.931 98.6317V98.6317C489.263 96.1501 486.893 94.2159 484.119 93.0737C481.346 91.9315 478.294 91.6326 475.35 92.2149C472.406 92.7972 469.701 94.2345 467.578 96.3449C465.456 98.4554 464.01 101.144 463.425 104.072C462.839 106.999 463.139 110.033 464.288 112.791C465.437 115.548 467.382 117.905 469.879 119.563C471.427 120.592 472.093 120.817 473.038 121.261C474.618 122.003 476.252 122.661 477.988 122.863V122.863C483.691 123.528 488.031 128.263 488.165 133.967L488.226 136.587L488.12 143.047C488.009 149.854 483.365 155.76 476.746 157.516V157.516Z" fill="#3B82F6"/>
<path d="M724.998 146.608C725.149 156.722 716.823 165 706.5 165V165C696.283 165 688 156.884 688 146.873L688 101.797C688 91.968 696.132 84 706.163 84V84C716.091 84 724.18 91.8102 724.325 101.537L724.998 146.608Z" fill="#3B82F6"/>
<path d="M673.754 158.506C672.45 158.855 671.103 159.047 669.754 158.99C660.756 158.606 654.655 155.623 646.798 150.35C638.362 144.69 631.787 136.644 627.905 127.231C624.022 117.817 623.006 107.459 624.986 97.4659C626.965 87.4727 631.851 78.2934 639.025 71.0888C646.199 63.8841 655.339 58.9776 665.29 56.9899C675.24 55.0021 685.554 56.0223 694.928 59.9215C704.301 63.8206 712.312 70.4236 717.949 78.8953C720.315 82.451 722.218 88.3828 723.629 94.8231C726.252 106.789 714.5 115.499 702.8 111.612L699.036 110.362C693.92 108.662 690.887 103.519 687.914 99.05V99.05C686.246 96.544 683.877 94.5908 681.104 93.4374C678.331 92.284 675.28 91.9822 672.337 92.5702C669.393 93.1582 666.69 94.6096 664.567 96.7407C662.445 98.8719 661 101.587 660.415 104.543C659.829 107.499 660.13 110.563 661.278 113.348C662.427 116.132 664.372 118.512 666.867 120.187C668.408 121.221 669.075 121.451 670.013 121.895C671.602 122.648 673.246 123.316 674.994 123.521V123.521C680.685 124.191 685.013 128.916 685.145 134.604L685.21 137.377L685.102 144.042C684.991 150.836 680.363 156.736 673.754 158.506V158.506Z" fill="#3B82F6"/>
<path fill-rule="evenodd" clip-rule="evenodd" d="M166 56C133.415 56 107 82.4276 107 115.028V143.571C107 154.854 116.142 164 127.419 164V164C138.697 164 147.839 154.854 147.839 143.571V116.118C147.839 106.083 155.97 97.9477 166 97.9477C176.03 97.9477 184.161 106.083 184.161 116.118V143.571C184.161 154.854 193.303 164 204.581 164V164C215.858 164 225 154.854 225 143.571V115.028C225 82.4276 198.585 56 166 56Z" fill="#3B82F6"/>
<path fill-rule="evenodd" clip-rule="evenodd" d="M264.551 88.1923C263.05 88.1923 261.834 89.4627 261.834 91.0298C261.834 92.597 263.05 93.8674 264.551 93.8674H290.414C308.963 93.8674 324 109.567 324 128.934C324 148.3 308.963 164 290.414 164H246.417C237.902 164 231 156.794 231 147.904C231 139.014 237.902 131.808 246.417 131.808H290.414C291.934 131.808 293.166 130.521 293.166 128.934C293.166 127.346 291.934 126.06 290.414 126.06H264.551C246.021 126.06 231 110.376 231 91.0298C231 71.6834 246.021 56 264.551 56L308.583 56C317.098 56 324 63.2065 324 72.0962C324 80.9858 317.098 88.1923 308.583 88.1923H264.551Z" fill="#3B82F6"/>
<path d="M329 60.5C329 50.835 336.876 43 346.59 43H413.41C423.124 43 431 50.835 431 60.5V60.5C431 70.165 423.124 78 413.41 78H346.59C336.876 78 329 70.165 329 60.5V60.5Z" fill="#3B82F6"/>
<path d="M380.5 164C370.835 164 363 156.111 363 146.38L363 17.6197C363 7.8886 370.835 -4.61482e-07 380.5 -8.83839e-07V-8.83839e-07C390.165 -1.3062e-06 398 7.88861 398 17.6197L398 146.38C398 156.111 390.165 164 380.5 164V164Z" fill="#3B82F6"/>
<path d="M554.5 164C544.835 164 537 156.111 537 146.38L537 17.6197C537 7.8886 544.835 5.08493e-07 554.5 8.61368e-08V8.61368e-08C564.165 -3.3622e-07 572 7.8886 572 17.6197L572 146.38C572 156.111 564.165 164 554.5 164V164Z" fill="#3B82F6"/>
<path d="M599.5 165C589.835 165 582 157.111 582 147.38L582 18.6197C582 8.8886 589.835 1 599.5 1V1C609.165 1 617 8.8886 617 18.6197L617 147.38C617 157.111 609.165 165 599.5 165V165Z" fill="#3B82F6"/>
</svg>
